<svg width="93" height="28" viewBox="0 0 93 28" fill="none" xmlns="http://www.w3.org/2000/svg">
    <g clip-path="url(#clip0_0_1)">
        <path
            d="M13.54 4.83628C13.54 4.02617 13.2182 3.24923 12.6453 2.67639C12.0725 2.10356 11.2956 1.78174 10.4854 1.78174C9.67531 1.78174 8.8984 2.10356 8.32553 2.67639C7.7527 3.24923 7.43088 4.02617 7.43088 4.83628C6.78087 4.83608 6.14251 5.00876 5.58121 5.33658C5.01994 5.66443 4.5559 6.13561 4.23672 6.70184C3.91755 7.26811 3.75468 7.90903 3.76483 8.55896C3.77498 9.20889 3.95778 9.84444 4.29447 10.4004C3.45819 10.562 2.70426 11.0097 2.16211 11.6667C1.61996 12.3236 1.32343 13.1488 1.32343 14.0005C1.32343 14.8523 1.61996 15.6775 2.16211 16.3344C2.70426 16.9913 3.45819 17.439 4.29447 17.6006C3.95809 18.1566 3.77555 18.792 3.76556 19.4418C3.75557 20.0915 3.91849 20.7322 4.23765 21.2983C4.55679 21.8644 5.02068 22.3354 5.58178 22.6631C6.14292 22.9909 6.78107 23.1636 7.43088 23.1636C7.43104 23.9737 7.75303 24.7505 8.32598 25.3233C8.89893 25.896 9.67593 26.2177 10.486 26.2175C11.2962 26.2173 12.0731 25.8953 12.6458 25.3224C13.2185 24.7494 13.5401 23.9724 13.54 23.1623"
            stroke="url(#paint0_linear_0_1)" stroke-width="1.83273" stroke-linecap="round" stroke-linejoin="round" />
        <path
            d="M13.5399 23.1637C13.5399 23.9738 13.8617 24.7507 14.4346 25.3236C15.0074 25.8964 15.7844 26.2182 16.5945 26.2182C17.4046 26.2182 18.1815 25.8964 18.7544 25.3236C19.3272 24.7507 19.649 23.9738 19.649 23.1637C20.2989 23.1637 20.937 22.991 21.4981 22.6633C22.0592 22.3355 22.5231 21.8645 22.8423 21.2984C23.1614 20.7324 23.3243 20.0916 23.3143 19.4419C23.3044 18.7921 23.1218 18.1567 22.7854 17.6007C23.6217 17.4392 24.3757 16.9914 24.9178 16.3345C25.4599 15.6776 25.7565 14.8524 25.7565 14.0006C25.7565 13.1489 25.4599 12.3237 24.9178 11.6668C24.3757 11.0098 23.6217 10.5622 22.7854 10.4006C23.1221 9.84454 23.3049 9.20903 23.3151 8.55907C23.3252 7.90914 23.1623 7.26822 22.8432 6.70198C22.524 6.13571 22.06 5.66454 21.4987 5.33673C20.9374 5.00887 20.299 4.83623 19.649 4.83639C19.6491 4.43528 19.5702 4.03806 19.4167 3.66744C19.2633 3.29681 19.0384 2.96003 18.7548 2.67634C18.4712 2.39264 18.1345 2.16757 17.7639 2.01399C17.3934 1.86042 16.9962 1.78133 16.5951 1.78125C15.785 1.78109 15.008 2.10275 14.435 2.67547C13.8621 3.2482 13.5401 4.02507 13.5399 4.83517"
            stroke="url(#paint1_linear_0_1)" stroke-width="1.83273" stroke-linecap="round" stroke-linejoin="round" />
        <path
            d="M11.6913 7.89209V10.3101M7.43085 12.1685H9.93802M17.2335 12.1685H19.7407M17.2335 15.8021H19.7407M7.43085 15.8021H9.93802M11.6913 17.6899V20.1091M15.3873 17.6899V20.1091M15.3763 7.89087V10.3101M11.1611 17.6275H16.0129C16.337 17.6275 16.6477 17.4988 16.8768 17.2697C17.106 17.0405 17.2347 16.7297 17.2347 16.4057V11.5319C17.2347 11.2078 17.106 10.8971 16.8768 10.6679C16.6477 10.4388 16.337 10.3101 16.0129 10.3101H11.1611C10.837 10.3101 10.5262 10.4388 10.2971 10.6679C10.068 10.8971 9.93924 11.2078 9.93924 11.5319V16.4057C9.93924 16.7297 10.068 17.0405 10.2971 17.2697C10.5262 17.4988 10.837 17.6275 11.1611 17.6275Z"
            stroke="url(#paint2_linear_0_1)" stroke-width="1.83273" stroke-linecap="round" stroke-linejoin="round" />
    </g>
    <path
        d="M30.3153 20.5V7.6176H34.9072C35.9094 7.6176 36.7398 7.80002 37.3981 8.16485C38.0565 8.52968 38.5492 9.02871 38.8763 9.66193C39.2034 10.291 39.367 10.9996 39.367 11.788C39.367 12.5806 39.2013 13.2935 38.87 13.9267C38.543 14.5557 38.0481 15.0548 37.3856 15.4238C36.7272 15.7886 35.899 15.971 34.9009 15.971H31.7432V14.323H34.7248C35.358 14.323 35.8717 14.214 36.2659 13.9959C36.6601 13.7736 36.9494 13.4717 37.1339 13.0901C37.3185 12.7085 37.4107 12.2745 37.4107 11.788C37.4107 11.3016 37.3185 10.8697 37.1339 10.4922C36.9494 10.1148 36.658 9.81918 36.2596 9.60531C35.8654 9.39145 35.3454 9.28451 34.6996 9.28451H32.259V20.5H30.3153ZM40.4318 20.5V10.8382H42.3126V20.5H40.4318ZM41.3817 9.34741C41.0546 9.34741 40.7736 9.23838 40.5388 9.02032C40.3081 8.79807 40.1928 8.53388 40.1928 8.22775C40.1928 7.91743 40.3081 7.65325 40.5388 7.43518C40.7736 7.21293 41.0546 7.1018 41.3817 7.1018C41.7088 7.1018 41.9876 7.21293 42.2183 7.43518C42.4531 7.65325 42.5705 7.91743 42.5705 8.22775C42.5705 8.53388 42.4531 8.79807 42.2183 9.02032C41.9876 9.23838 41.7088 9.34741 41.3817 9.34741ZM47.8499 20.695C46.9147 20.695 46.1096 20.4832 45.4344 20.0597C44.7634 19.6319 44.2477 19.0428 43.887 18.2921C43.5264 17.5415 43.3461 16.6818 43.3461 15.7131C43.3461 14.7319 43.5306 13.8659 43.8996 13.1153C44.2686 12.3604 44.7886 11.7713 45.4596 11.3477C46.1305 10.9242 46.921 10.7124 47.831 10.7124C48.5648 10.7124 49.219 10.8487 49.7935 11.1213C50.368 11.3896 50.8314 11.7671 51.1837 12.2535C51.5401 12.7399 51.7519 13.3082 51.819 13.9582H49.9885C49.8879 13.5053 49.6573 13.1153 49.2966 12.7882C48.9402 12.4611 48.4621 12.2975 47.8624 12.2975C47.3383 12.2975 46.8791 12.4359 46.4849 12.7127C46.0949 12.9853 45.7909 13.3753 45.5728 13.8827C45.3547 14.3859 45.2457 14.9814 45.2457 15.6691C45.2457 16.3736 45.3526 16.9817 45.5665 17.4933C45.7804 18.0049 46.0823 18.4012 46.4723 18.6821C46.8665 18.9631 47.3299 19.1036 47.8624 19.1036C48.2189 19.1036 48.5418 19.0386 48.8311 18.9086C49.1247 18.7744 49.37 18.5836 49.5671 18.3362C49.7684 18.0887 49.9089 17.791 49.9885 17.4429H51.819C51.7519 18.0678 51.5485 18.6255 51.2088 19.1161C50.8692 19.6068 50.4142 19.9926 49.8439 20.2736C49.2777 20.5545 48.6131 20.695 47.8499 20.695ZM60.0076 13.197L58.3029 13.499C58.2316 13.2809 58.1184 13.0733 57.9632 12.8762C57.8123 12.6791 57.6068 12.5177 57.3468 12.3919C57.0868 12.2661 56.7618 12.2032 56.3718 12.2032C55.8392 12.2032 55.3947 12.3227 55.0383 12.5617C54.6818 12.7966 54.5036 13.1006 54.5036 13.4738C54.5036 13.7967 54.6231 14.0567 54.8621 14.2538C55.1012 14.4509 55.487 14.6123 56.0196 14.7381L57.5544 15.0904C58.4434 15.2959 59.106 15.6125 59.5421 16.0402C59.9782 16.468 60.1963 17.0236 60.1963 17.7071C60.1963 18.2858 60.0285 18.8016 59.693 19.2545C59.3618 19.7032 58.8984 20.0555 58.3029 20.3113C57.7116 20.5671 57.026 20.695 56.246 20.695C55.1641 20.695 54.2813 20.4644 53.5978 20.0031C52.9143 19.5376 52.4949 18.8771 52.3398 18.0216L54.1576 17.7449C54.2709 18.2187 54.5036 18.5773 54.8559 18.8205C55.2081 19.0595 55.6673 19.1791 56.2334 19.1791C56.8499 19.1791 57.3426 19.0511 57.7116 18.7953C58.0807 18.5354 58.2652 18.2187 58.2652 17.8455C58.2652 17.5436 58.1519 17.2899 57.9255 17.0844C57.7032 16.8789 57.3615 16.7238 56.9002 16.6189L55.2647 16.2604C54.3631 16.0549 53.6964 15.7278 53.2644 15.2791C52.8367 14.8304 52.6228 14.2622 52.6228 13.5745C52.6228 13.0041 52.7822 12.5051 53.1009 12.0774C53.4196 11.6496 53.8599 11.3163 54.4218 11.0772C54.9838 10.834 55.6275 10.7124 56.3529 10.7124C57.3971 10.7124 58.219 10.9388 58.8187 11.3917C59.4184 11.8404 59.8147 12.4422 60.0076 13.197ZM63.0822 14.7633V20.5H61.2014V7.6176H63.057V12.4108H63.1765C63.403 11.8908 63.7489 11.4777 64.2144 11.1716C64.6799 10.8655 65.2879 10.7124 66.0386 10.7124C66.7011 10.7124 67.2798 10.8487 67.7747 11.1213C68.2737 11.3938 68.6595 11.8006 68.9321 12.3416C69.2089 12.8783 69.3472 13.5493 69.3472 14.3544V20.5H67.4665V14.5809C67.4665 13.8722 67.284 13.3228 66.9192 12.9328C66.5544 12.5387 66.047 12.3416 65.397 12.3416C64.9525 12.3416 64.5541 12.4359 64.2018 12.6246C63.8538 12.8133 63.5791 13.0901 63.3778 13.4549C63.1807 13.8156 63.0822 14.2517 63.0822 14.7633ZM73.606 20.7139C72.9937 20.7139 72.4402 20.6006 71.9454 20.3742C71.4505 20.1436 71.0584 19.8102 70.7691 19.374C70.4839 18.9379 70.3413 18.4033 70.3413 17.77C70.3413 17.2249 70.4462 16.7762 70.6559 16.4239C70.8655 16.0717 71.1486 15.7928 71.505 15.5873C71.8615 15.3818 72.2599 15.2267 72.7002 15.1219C73.1405 15.017 73.5892 14.9373 74.0463 14.8828C74.625 14.8157 75.0947 14.7612 75.4553 14.7193C75.8159 14.6731 76.078 14.5998 76.2416 14.4991C76.4051 14.3985 76.4869 14.2349 76.4869 14.0085V13.9644C76.4869 13.4151 76.3317 12.9895 76.0214 12.6875C75.7153 12.3856 75.2582 12.2346 74.6502 12.2346C74.0169 12.2346 73.5179 12.3751 73.1531 12.6561C72.7924 12.9328 72.5429 13.2411 72.4045 13.5807L70.637 13.1782C70.8467 12.5911 71.1528 12.1172 71.5554 11.7566C71.9621 11.3917 72.4297 11.1276 72.9581 10.964C73.4865 10.7963 74.0421 10.7124 74.625 10.7124C75.0108 10.7124 75.4197 10.7585 75.8516 10.8508C76.2877 10.9388 76.6945 11.1024 77.0719 11.3414C77.4535 11.5804 77.7659 11.9222 78.0091 12.3667C78.2524 12.807 78.374 13.3795 78.374 14.084V20.5H76.5372V19.1791H76.4617C76.3401 19.4223 76.1577 19.6613 75.9145 19.8961C75.6713 20.131 75.3589 20.326 74.9772 20.4811C74.5956 20.6363 74.1385 20.7139 73.606 20.7139ZM74.0148 19.2042C74.5348 19.2042 74.9793 19.1015 75.3484 18.896C75.7216 18.6905 76.0047 18.4221 76.1976 18.0908C76.3946 17.7554 76.4932 17.3968 76.4932 17.0152V15.7697C76.4261 15.8368 76.2961 15.8997 76.1032 15.9585C75.9145 16.013 75.6985 16.0612 75.4553 16.1031C75.2121 16.1409 74.9751 16.1765 74.7445 16.2101C74.5139 16.2394 74.321 16.2646 74.1658 16.2855C73.801 16.3317 73.4676 16.4093 73.1657 16.5183C72.8679 16.6273 72.6289 16.7846 72.4486 16.99C72.2724 17.1913 72.1844 17.4597 72.1844 17.7952C72.1844 18.2607 72.3563 18.6129 72.7002 18.852C73.044 19.0868 73.4823 19.2042 74.0148 19.2042ZM81.9109 20.5L79.0677 10.8382H81.0114L82.9048 17.9336H82.9991L84.8988 10.8382H86.8425L88.7295 17.9021H88.8239L90.7047 10.8382H92.6483L89.8114 20.5H87.8929L85.9304 13.5241H85.7857L83.8231 20.5H81.9109Z"
        fill="url(#paint3_linear_0_1)" />
    <defs>
        <linearGradient id="paint0_linear_0_1" x1="7.4317" y1="1.78174" x2="7.4317" y2="26.2175"
            gradientUnits="userSpaceOnUse">
            <stop stop-color="#8678DC" />
            <stop offset="1" stop-color="#D273B3" />
        </linearGradient>
        <linearGradient id="paint1_linear_0_1" x1="19.6482" y1="1.78125" x2="19.6482" y2="26.2182"
            gradientUnits="userSpaceOnUse">
            <stop stop-color="#8678DC" />
            <stop offset="1" stop-color="#D273B3" />
        </linearGradient>
        <linearGradient id="paint2_linear_0_1" x1="13.5858" y1="7.89087" x2="13.5858" y2="20.1091"
            gradientUnits="userSpaceOnUse">
            <stop stop-color="#8678DC" />
            <stop offset="1" stop-color="#D273B3" />
        </linearGradient>
        <linearGradient id="paint3_linear_0_1" x1="28.5" y1="14.5" x2="93.9" y2="14" gradientUnits="userSpaceOnUse">
            <stop stop-color="#8077DF" />
            <stop offset="1" stop-color="#D572B1" />
        </linearGradient>
        <clipPath id="clip0_0_1">
            <rect width="26.88" height="26.88" fill="white" transform="translate(0.0999756 0.560059)" />
        </clipPath>
    </defs>
</svg>